<svg width="24" height="24" viewBox="0 0 24 24" fill="none" xmlns="http://www.w3.org/2000/svg">
<path d="M1.34098 6.50199C2.45098 4.34499 4.21798 2.51799 6.50298 1.34199L7.26898 3.18999C5.48998 4.14399 4.09998 5.58299 3.19498 7.27099L1.34098 6.50199V6.50199ZM7.27098 20.804C5.58298 19.9 4.14498 18.51 3.19098 16.73L1.34298 17.495C2.51798 19.781 4.34498 21.549 6.50298 22.66L7.27098 20.804V20.804ZM2.42598 14.883C1.84198 12.951 1.87698 10.951 2.43098 9.11799L0.574981 8.34999C-0.164019 10.661 -0.207019 13.202 0.577981 15.649L2.42598 14.883V14.883ZM8.35098 0.576993L9.11698 2.42499C11.049 1.84199 13.05 1.87599 14.882 2.42999L15.652 0.574993C13.339 -0.165007 10.799 -0.207007 8.35098 0.576993V0.576993ZM16.729 3.19599C18.417 4.10099 19.855 5.48999 20.808 7.26899L22.656 6.50299C21.48 4.21799 19.654 2.45099 17.497 1.33999L16.729 3.19599V3.19599ZM21.574 9.11499C22.158 11.048 22.123 13.048 21.569 14.881L23.424 15.65C24.164 13.339 24.206 10.797 23.421 8.34899L21.574 9.11499ZM20.804 16.729C19.9 18.417 18.51 19.855 16.732 20.809L17.498 22.657C19.783 21.481 21.55 19.654 22.66 17.497L20.804 16.729V16.729ZM14.884 21.574C12.951 22.158 10.951 22.123 9.11798 21.569L8.34798 23.425C10.66 24.164 13.201 24.207 15.649 23.423L14.884 21.574V21.574Z" fill="black"/>
</svg>
