<svg width="20" height="20" viewBox="0 0 20 20" fill="none" xmlns="http://www.w3.org/2000/svg">
<path d="M10 1.66667C14.595 1.66667 18.3333 5.405 18.3333 10C18.3333 14.595 14.595 18.3333 10 18.3333C5.405 18.3333 1.66667 14.595 1.66667 10C1.66667 5.405 5.405 1.66667 10 1.66667ZM10 0C4.4775 0 0 4.4775 0 10C0 15.5225 4.4775 20 10 20C15.5225 20 20 15.5225 20 10C20 4.4775 15.5225 0 10 0ZM10.8333 15H9.16667V8.33333H10.8333V15ZM10 4.79167C10.575 4.79167 11.0417 5.25833 11.0417 5.83333C11.0417 6.40833 10.575 6.875 10 6.875C9.425 6.875 8.95833 6.40833 8.95833 5.83333C8.95833 5.25833 9.425 4.79167 10 4.79167Z" fill="black"/>
</svg>
